<?xml version="1.0" encoding="UTF-8" standalone="no"?>
<!-- Created with Inkscape (http://www.inkscape.org/) -->

<svg
   width="210mm"
   height="297mm"
   viewBox="0 0 210 297"
   version="1.1"
   id="svg5"
   xml:space="preserve"
   inkscape:version="1.2.2 (732a01da63, 2022-12-09)"
   sodipodi:docname="icon.svg"
   xmlns:inkscape="http://www.inkscape.org/namespaces/inkscape"
   xmlns:sodipodi="http://sodipodi.sourceforge.net/DTD/sodipodi-0.dtd"
   xmlns="http://www.w3.org/2000/svg"
   xmlns:svg="http://www.w3.org/2000/svg"><sodipodi:namedview
     id="namedview7"
     pagecolor="#505050"
     bordercolor="#eeeeee"
     borderopacity="1"
     inkscape:showpageshadow="0"
     inkscape:pageopacity="0"
     inkscape:pagecheckerboard="0"
     inkscape:deskcolor="#505050"
     inkscape:document-units="mm"
     showgrid="false"
     inkscape:zoom="0.4204826"
     inkscape:cx="-136.74763"
     inkscape:cy="701.5748"
     inkscape:window-width="1920"
     inkscape:window-height="1013"
     inkscape:window-x="-9"
     inkscape:window-y="29"
     inkscape:window-maximized="1"
     inkscape:current-layer="layer1" /><defs
     id="defs2" /><g
     inkscape:label="Layer 1"
     inkscape:groupmode="layer"
     id="layer1"><path
       d="M 0.13229,0 C 0.05929,0 0,0.0592 0,0.1323 v 2.38125 c 0,0.073 0.0592,0.13229 0.13229,0.13229 h 3.175 c 0.0731,0 0.13229,-0.0592 0.13229,-0.13229 V 0.1323 C 3.43958,0.0592 3.38038,0 3.30729,0 0.76814,0.002 2.29132,0 0.13229,0 Z M 3.175,2.38125 H 0.26458 V 0.26459 H 3.175 Z M 1.05833,1.05834 c -0.14613,0 -0.26458,-0.11846 -0.26458,-0.26459 0,-0.14613 0.11845,-0.26458 0.26458,-0.26458 0.14613,0 0.26458,0.11845 0.26458,0.26458 0,0.14613 -0.11845,0.26459 -0.26458,0.26459 z M 2.91041,2.11667 H 0.92604 L 1.32291,1.32292 1.65364,1.98438 2.24895,0.79375 Z"
       id="path132"
       style="stroke-width:0.264583"
       sodipodi:nodetypes="csssssscccccccssssscccccc" /></g></svg>
