<?xml version="1.0" encoding="UTF-8"?>
<!-- Created with Inkscape (http://www.inkscape.org/)
    inkscape:version="1.2.2 (732a01da63, 2022-12-09)" 
    svg:version="1.1" -->
<svg id="SVGRoot" width="256px" height="256px" version="1.1" viewBox="0 0 256 256" xmlns="http://www.w3.org/2000/svg">
 <path d="m9.846 0.052312c-5.4332 0-9.846 4.4061-9.846 9.8468v236.24c0 5.4332 4.4061 9.8461 9.846 9.8461h236.31c5.4406 0 9.846-4.4061 9.846-9.8461v-236.24c0-5.4407-4.4061-9.8468-9.846-9.8468zm226.46 236.24h-216.62v-216.55h216.62z" fill="#fff" stroke-width="19.692"/>
 <path d="m73.599 101.14c-13.808 0-25-11.193-25-25.001 0-13.808 11.192-25 25-25 13.808 0 25 11.192 25 25 0 13.808-11.192 25.001-25 25.001zm149.15 104.34h-187.5l37.5-75 31.25 62.5 56.25-112.5z" fill="#fff" stroke-width="25"/>
</svg>